# xmcd
#
# Track frame offsets: 
#        150
#        1219
#        18806
#        49414
#        72454
#        93386
#        108947
#        126963
#        144654
#        164870
#        184062
#        204742
#        227334
#        248554
#
# Disc length: 3328 seconds
#
# Revision: 0
# Processed by: cddbd v1.5.2PL0 Copyright (c) Steve Scherf et al.
# Submitted via: ExactAudioCopyFreeDBPlugin 1.0
#
DISCID=bf0cfe0e
DTITLE=Blue Asia, kubota makoto - 久保田麻琴 - Sketches Of Myahk
DYEAR=2009
DGENRE=Tribal
TTITLE0=Myahk ミャーク
TTITLE1=Ikema Kuduchi 池間口説 (イケマクドゥチ)
TTITLE2=Myahk-zutsu1 宮古節(ミャークズツ)の綾言(アーグ)
TTITLE3=Gudinpuu 御前風
TTITLE4=Weenma nu Eeg ウェーンマヌエーグ
TTITLE5=Kun-nu-Shu 古見ぬ主
TTITLE6=Nakadati no Migagama 中立ちのミガガマ
TTITLE7=Nisu ga Tou 西が沖
TTITLE8=Myahk-zutsu 2 宮古節(ミャークズツ)の綾言(アーグ)
TTITLE9=Nakayamaabu ナカヤマーブ
TTITLE10=Tabihae no Aagu 旅栄えの綾言
TTITLE11=Bangamuli バンガムリ
TTITLE12=Nakadati no Migagama Remix 中立ちのミガガマ
TTITLE13=Myahk 2 ミャーク2
EXTD=
EXTT0=
EXTT1=
EXTT2=
EXTT3=
EXTT4=
EXTT5=
EXTT6=
EXTT7=
EXTT8=
EXTT9=
EXTT10=
EXTT11=
EXTT12=
EXTT13=
PLAYORDER=
